<svg id="Layer_1" enable-background="new 0 0 512 512" height="512" viewBox="0 0 512 512" width="512" xmlns="http://www.w3.org/2000/svg"><g><path d="m336 130v-94h-40v54z" fill="#fff"/><path d="m356 230v180h-100v-100h-80v100h-100v-180l140-140z" fill="#ccf5fc"/><path d="m36 270 180-180 180 180v-80l-180-180-180 180z" fill="#fff"/><circle cx="216" cy="220" fill="#fff" r="40"/><g><path d="m316 362c0 60 80 140 80 140s80-80 80-140c0-44.183-35.817-80-80-80s-80 35.817-80 80z" fill="#ffbdbc"/><circle cx="396" cy="362" fill="#fff" r="30"/><g><path d="m405.67 272.52c.212-.812.329-1.656.329-2.521v-80c0-2.652-1.054-5.196-2.929-7.071l-57.07-57.071v-89.857c0-5.523-4.477-10-10-10h-40c-5.523 0-10 4.477-10 10v29.857l-62.929-62.929c-3.905-3.904-10.237-3.904-14.143 0l-180 180c-1.875 1.876-2.928 4.419-2.928 7.072v80c0 4.044 2.437 7.691 6.173 9.239 3.736 1.549 8.038.693 10.898-2.167l22.929-22.93v155.858c0 5.523 4.477 10 10 10h100c5.523 0 10-4.477 10-10v-90h60v90c0 5.523 4.477 10 10 10h66.714c23.525 46.014 63.825 86.682 66.214 89.071 1.953 1.953 4.512 2.929 7.071 2.929s5.119-.976 7.071-2.929c3.387-3.386 82.93-83.658 82.93-147.071 0-46.359-35.235-84.64-80.33-89.48zm-21.091.201c-6.428.818-12.644 2.322-18.579 4.426v-23.005zm-78.579-226.721h20v59.857l-20-20zm-260 148.142 170-170 170 170v51.716l-22.928-22.928s-.001-.001-.001-.001l-139.999-140c-1.954-1.953-4.513-2.929-7.072-2.929s-5.119.977-7.071 2.929l-139.999 140s-.001.001-.001.001l-22.929 22.927zm220 205.858v-90c0-5.523-4.477-10-10-10h-80c-5.523 0-10 4.477-10 10v90h-80v-165.858l130-130 130 130v53.061c-24.103 16.165-40 43.658-40 74.796 0 12.262 2.983 25.155 7.806 38h-47.806zm129.995 87.462c-7.47-8.121-19.835-22.219-32.07-39.068-24.811-34.166-37.925-64.041-37.925-86.394 0-38.598 31.402-70 70-70s70 31.402 70 70c0 45.06-50.956 104.731-70.005 125.462z" fill="#60a4ff"/></g></g></g></svg>