<svg id="Layer_1" enable-background="new 0 0 512 512" height="512" viewBox="0 0 512 512" width="512" xmlns="http://www.w3.org/2000/svg"><g><path d="m96 376h160v60l60-60h100v-180h-320z" fill="#ff9eb1"/><path d="m330 256h-160v60l-60-60h-100v-180h320z" fill="#fff"/><ellipse cx="402" cy="216" fill="#ffee80" rx="100" ry="100" transform="matrix(.707 -.707 .707 .707 -34.992 347.522)"/><g fill="#ff5d7d"><path d="m512 216c0-60.653-49.346-109.999-110-109.999-22.981 0-44.335 7.088-62 19.187v-49.188c0-5.522-4.478-10-10-10h-320c-5.523 0-10 4.478-10 10v180c0 5.522 4.477 10 10 10h76v110c0 5.522 4.478 10 10 10h150v50c0 4.045 2.436 7.691 6.173 9.239 1.237.512 2.537.761 3.825.761 2.603 0 5.16-1.016 7.073-2.929l57.072-57.071h95.857c5.522 0 10-4.478 10-10v-52.645c49.15-10.98 86-54.942 86-107.355zm-492-130h300v56.765c-17.402 19.464-28 45.133-28 73.235 0 10.396 1.451 20.46 4.158 30h-126.158c-5.523 0-10 4.477-10 10v35.857l-42.929-42.929c-1.876-1.874-4.419-2.928-7.071-2.928h-90zm386 280h-90c-2.652 0-5.195 1.054-7.071 2.929l-42.929 42.928v-35.857c0-5.522-4.478-10-10-10h-150v-99.857l56.929 56.929c1.913 1.913 4.471 2.929 7.073 2.929 1.288 0 2.588-.249 3.825-.761 3.736-1.548 6.173-5.194 6.173-9.239v-50h124.035c18.237 35.588 55.304 60 97.965 60 1.34 0 2.672-.033 4-.081zm-4-60c-49.626 0-90-40.374-90-90s40.374-89.999 90-89.999 90 40.373 90 89.999-40.374 90-90 90z"/><path d="m422 186.504c5.522 0 10-4.478 10-10 0-5.523-4.478-10-10-10h-10v-9.997c0-5.522-4.478-10-10-10s-10 4.478-10 10v9.997h-10c-5.522 0-10 4.477-10 10v40c0 5.522 4.478 10 10 10h30v20h-30c-5.522 0-10 4.477-10 10 0 5.522 4.478 10 10 10h10v8.99c0 5.522 4.478 10 10 10s10-4.478 10-10v-8.99h10c5.522 0 10-4.478 10-10v-40c0-5.523-4.478-10-10-10h-30v-20z"/></g><path d="m180 127.213-10 10-10-10c-11.046-11.046-28.954-11.046-40 0-11.046 11.046-11.046 28.954 0 40l42.929 42.929c3.905 3.905 10.237 3.905 14.142 0l42.929-42.929c11.046-11.046 11.046-28.954 0-40-11.045-11.045-28.954-11.045-40 0z" fill="#ff7d97"/></g></svg>