<svg id="Layer_1" enable-background="new 0 0 512.58 512.58" height="512" viewBox="0 0 512.58 512.58" width="512" xmlns="http://www.w3.org/2000/svg"><g><g><g clip-rule="evenodd" fill-rule="evenodd"><path d="m141.731 290.94v-32.411c0-12.459 2.604-24.735 12.364-27.173 46.708-11.67 83.746-88.639 89.352-185.687.639-11.068 3.139-25.63 12.843-25.63s12.204 14.562 12.843 25.63c5.606 97.047 42.644 174.016 89.352 185.687 9.76 2.439 12.365 14.714 12.365 27.173v32.411c0 10.642-4.191 19.35-9.314 19.35h105.036 15.719c11 0 20-9 20-20v-33.5c0-12.878-5.592-25.566-26.55-28.086-100.3-12.062-179.834-91.617-191.872-191.924-1.372-11.439-6.741-26.491-27.578-26.491s-26.206 15.051-27.579 26.491c-12.039 100.307-91.572 179.862-191.871 191.924-20.958 2.521-26.55 15.209-26.55 28.086v33.5c0 11 9 20 20 20h15.719 105.036c-5.124 0-9.315-8.708-9.315-19.35z" fill="#fff"/><path d="m141.731 258.529v32.411c0 10.642 4.191 19.35 9.314 19.35h35.245c0-11 9-20 20-20h100c11 0 20 9 20 20h35.246c5.122 0 9.314-8.707 9.314-19.35v-32.411c0-12.459-2.604-24.735-12.365-27.173-46.708-11.67-83.746-88.639-89.352-185.687-.639-11.068-3.139-25.63-12.843-25.63s-12.204 14.562-12.843 25.63c-5.606 97.047-42.644 174.016-89.352 185.687-9.76 2.438-12.364 14.714-12.364 27.173z" fill="#fff"/><path d="m206.29 290.289c-11 0-20 9-20 20v20h10 120 10v-20c0-11.001-9-20-20-20z" fill="#fff"/><path d="m316.29 330.289c0 48.376 23.701 148.952 63.622 172h102.378c10.999 0 22.236-9.23 20-20l-35.719-172h-105.035-35.246v20z" fill="#fff"/><path d="m379.911 502.29c-39.921-23.048-63.622-123.625-63.622-172h-119.999c0 48.376-23.701 148.952-63.622 172z" fill="#cecdf3"/><path d="m132.669 502.29c39.921-23.048 63.622-123.625 63.622-172h-10v-20h-35.245-105.037l-35.719 172c-2.237 10.771 9.001 20 20 20z" fill="#fff"/></g><g><path d="m99.422 429.887c-.345 0-.694-.018-1.045-.054-5.493-.571-9.484-5.486-8.914-10.979l6.783-65.324c.571-5.494 5.485-9.481 10.979-8.914 5.493.571 9.484 5.486 8.914 10.979l-6.783 65.324c-.533 5.142-4.875 8.968-9.934 8.968z" fill="#fff"/></g><g><path d="m413.158 429.887c-5.059 0-9.4-3.826-9.935-8.968l-6.783-65.324c-.57-5.493 3.421-10.409 8.914-10.979 5.487-.568 10.409 3.42 10.979 8.914l6.783 65.324c.57 5.493-3.421 10.409-8.914 10.979-.35.036-.699.054-1.044.054z" fill="#fff"/></g></g><path d="m512.081 480.257-33.22-159.967h3.429c16.542 0 30-13.458 30-30v-33.5c0-21.456-12.887-35.312-35.356-38.015-96.273-11.578-171.582-86.907-183.136-183.186-2.692-22.433-16.363-35.299-37.508-35.299s-34.816 12.866-37.507 35.299c-11.555 96.279-86.863 171.608-183.137 183.187-22.469 2.702-35.356 16.558-35.356 38.014v33.5c0 16.542 13.458 30 30 30h3.429l-33.22 159.967c-1.491 7.182.385 14.452 5.283 20.472 5.803 7.131 15.194 11.561 24.508 11.561h102.375c.005 0 .01.001.015.001s.01-.001.015-.001h247.196.008.008 102.383c9.314 0 18.705-4.43 24.508-11.562 4.898-6.02 6.774-13.29 5.283-20.471zm-491.791-189.967v-33.5c0-11.381 5.141-16.642 17.744-18.158 50.724-6.101 98.636-29.443 134.912-65.729s59.606-84.206 65.694-134.932c1.87-15.582 9.971-17.682 17.65-17.682s15.78 2.101 17.65 17.682c6.088 50.727 29.418 98.646 65.694 134.932 36.275 36.285 84.188 59.628 134.911 65.729 12.604 1.516 17.745 6.776 17.745 18.158v33.5c0 5.514-4.486 10-10 10h-147.72c-4.128-11.639-15.243-20-28.28-20h-100c-13.036 0-24.151 8.361-28.279 20h-147.721c-5.514-.001-10-4.486-10-10zm296 29.999h-120v-10c0-5.514 4.486-10 10-10h100c5.514 0 10 4.486 10 10zm-127.677 109.664c9.429-29.094 15.992-63.235 17.392-89.664h100.569c1.4 26.429 7.963 60.57 17.392 89.664 6.539 20.175 16.517 44.521 30.461 62.336h-196.275c13.943-17.816 23.922-42.161 30.461-62.336zm-167.317 58.152c-1.593-1.958-1.308-3.331-1.214-3.782l34.064-164.034h122.144v10c0 5.422 4.318 9.826 9.701 9.985-2.821 51.538-25.765 131.456-56.204 152.015h-99.497c-3.291 0-6.99-1.72-8.994-4.184zm469.989 0c-2.005 2.464-5.704 4.185-8.995 4.185h-99.498c-30.438-20.558-53.382-100.477-56.204-152.015 5.383-.159 9.701-4.563 9.701-9.985v-10h122.145l34.064 164.034c.095.45.38 1.823-1.213 3.781z" fill="#9ea6bf"/></g></svg>